<svg width="133" height="129" viewBox="0 0 133 129" fill="none" xmlns="http://www.w3.org/2000/svg">
<line x1="29.7071" y1="28.3785" x2="51.3757" y2="50.0471" stroke="#219653" stroke-width="2"/>
<line x1="49.9623" y1="50.0471" x2="98.7165" y2="1.29289" stroke="#219653" stroke-width="2"/>
<line x1="29.7074" y1="35.15" x2="51.3759" y2="56.8186" stroke="#219653" stroke-width="2"/>
<line x1="49.9614" y1="56.8186" x2="98.7157" y2="8.06437" stroke="#219653" stroke-width="2"/>
<line x1="29.7074" y1="41.9215" x2="51.3759" y2="63.59" stroke="#219653" stroke-width="2"/>
<line x1="49.9614" y1="63.59" x2="98.7157" y2="14.8358" stroke="#219653" stroke-width="2"/>
<line x1="29.7074" y1="48.6928" x2="51.3759" y2="70.3614" stroke="#219653" stroke-width="2"/>
<line x1="49.9614" y1="70.3614" x2="98.7157" y2="21.6072" stroke="#219653" stroke-width="2"/>
<line x1="29.7074" y1="55.4643" x2="51.3759" y2="77.1328" stroke="#219653" stroke-width="2"/>
<line x1="49.9614" y1="77.1328" x2="98.7157" y2="28.3786" stroke="#219653" stroke-width="2"/>
<line x1="29.7074" y1="62.0867" x2="51.3759" y2="83.7553" stroke="#219653" stroke-width="2"/>
<line x1="49.9614" y1="83.7553" x2="98.7157" y2="35.0011" stroke="#219653" stroke-width="2"/>
<path d="M21.8004 103.122L18.4344 113.356L15.0684 103.122H11.5664L8.2004 113.356L4.83439 103.122H0.584393L6.46639 119H9.7644L13.3004 108.154L17.0064 119H20.3384L26.0504 103.122H21.8004ZM43.2804 110.908C43.2804 105.944 39.7104 102.782 35.1544 102.782C30.6324 102.782 26.8244 105.978 26.8244 111.044C26.8244 116.008 30.4284 119.34 35.1884 119.34C38.0784 119.34 40.8664 118.116 42.3284 115.804L39.7104 113.798C38.7584 115.09 37.1264 115.77 35.3924 115.77C33.0464 115.77 31.3464 114.648 30.9044 112.438H43.1784C43.2464 111.86 43.2804 111.35 43.2804 110.908ZM30.9044 109.684C31.3804 107.27 33.0804 106.25 35.2224 106.25C37.4324 106.25 39.0984 107.508 39.3364 109.684H30.9044ZM53.839 119.306C56.593 119.306 58.837 118.082 60.299 116.246L57.477 114.036C56.661 115.022 55.301 115.634 53.907 115.634C51.153 115.634 49.181 113.696 49.181 111.044C49.181 108.358 51.153 106.454 53.907 106.454C55.301 106.454 56.661 107.066 57.477 108.052L60.299 105.842C58.837 103.972 56.593 102.782 53.839 102.782C49.249 102.782 45.203 106.012 45.203 111.044C45.203 116.076 49.249 119.306 53.839 119.306ZM71.8479 102.782C70.2499 102.782 67.6999 103.632 66.9179 105.536V94.622H62.9739V119H66.9179V110.704C66.9179 107.644 69.1619 106.658 70.9639 106.658C72.7319 106.658 74.2619 107.95 74.2619 110.466V119H78.2059V110.092C78.2059 105.468 75.9279 102.782 71.8479 102.782ZM97.4865 110.908C97.4865 105.944 93.9165 102.782 89.3605 102.782C84.8385 102.782 81.0305 105.978 81.0305 111.044C81.0305 116.008 84.6345 119.34 89.3945 119.34C92.2845 119.34 95.0725 118.116 96.5345 115.804L93.9165 113.798C92.9645 115.09 91.3325 115.77 89.5985 115.77C87.2525 115.77 85.5525 114.648 85.1105 112.438H97.3845C97.4525 111.86 97.4865 111.35 97.4865 110.908ZM85.1105 109.684C85.5865 107.27 87.2865 106.25 89.4285 106.25C91.6385 106.25 93.3045 107.508 93.5425 109.684H85.1105ZM108.045 119.306C110.799 119.306 113.043 118.082 114.505 116.246L111.683 114.036C110.867 115.022 109.507 115.634 108.113 115.634C105.359 115.634 103.387 113.696 103.387 111.044C103.387 108.358 105.359 106.454 108.113 106.454C109.507 106.454 110.867 107.066 111.683 108.052L114.505 105.842C113.043 103.972 110.799 102.782 108.045 102.782C103.455 102.782 99.4091 106.012 99.4091 111.044C99.4091 116.076 103.455 119.306 108.045 119.306ZM132.31 119L124.354 110.058L130.814 103.122H125.68L121.124 108.188V94.622H117.18V119H121.124V111.792L127.312 119H132.31Z" fill="#111111"/>
</svg>
