<svg width="433" height="134" viewBox="0 0 433 134" fill="none" xmlns="http://www.w3.org/2000/svg">
<path d="M1 42.0001C45.9142 42.5759 80.6127 41.3735 125.444 43.7778C141.171 44.6213 172.186 44.086 188.111 39.5556C199.804 36.2291 218.222 31.1112 226.222 27.0001C234.222 22.889 236.832 15.2723 234.222 8.66673C231.504 1.78818 223.016 -0.144738 216.222 2.77784C209.151 5.81952 207.327 15.2341 208.444 20.889C210.234 29.9414 214.259 37.8989 220.556 44.5556C228.576 53.0341 240.052 58.9322 254.444 64.0001C285.658 74.9914 339 58.4445 339 58.4445C341.598 58.2757 361.5 56 363 49.7778C364.5 43.5557 363 39.0001 355 39.0001C347 39.0001 334.509 64.0001 339 78C343.491 91.9999 357.105 106.538 382.667 119.222C396.47 126.072 419.856 133 432 133" stroke="#2BA15D" stroke-linecap="round" stroke-linejoin="round" stroke-dasharray="3 5"/>
</svg>
